<svg xmlns="http://www.w3.org/2000/svg" xmlns:xlink="http://www.w3.org/1999/xlink" width="0" height="0" style="position:absolute">
    <symbol id="sale01"  viewBox="0 0 25 25">
        <g>
            <circle cx="12.5" cy="12.5" r="12.5" fill="#ff6749"/>
            <path fill="#ffffff" d="M8.773,17.840 C8.687,17.940 8.564,17.991 8.439,17.991 C8.341,17.991 8.243,17.959 8.161,17.894 C7.977,17.744 7.952,17.478 8.106,17.298 L16.786,7.161 C16.939,6.982 17.212,6.957 17.397,7.107 C17.581,7.256 17.606,7.522 17.453,7.702 L8.773,17.840 ZM10.175,11.233 C8.979,11.233 8.005,10.285 8.005,9.121 C8.005,7.956 8.979,7.009 10.175,7.009 C11.372,7.009 12.345,7.956 12.345,9.121 C12.345,10.285 11.372,11.233 10.175,11.233 ZM10.175,7.854 C9.458,7.854 8.873,8.422 8.873,9.121 C8.873,9.820 9.458,10.388 10.175,10.388 C10.893,10.388 11.477,9.820 11.477,9.121 C11.477,8.422 10.893,7.854 10.175,7.854 ZM15.817,13.767 C17.014,13.767 17.987,14.715 17.987,15.879 C17.987,17.044 17.014,17.991 15.817,17.991 C14.621,17.991 13.647,17.044 13.647,15.879 C13.647,14.715 14.621,13.767 15.817,13.767 ZM15.817,17.147 C16.535,17.147 17.119,16.578 17.119,15.879 C17.119,15.181 16.535,14.612 15.817,14.612 C15.099,14.612 14.515,15.181 14.515,15.879 C14.515,16.578 15.099,17.147 15.817,17.147 Z" />
        </g>
    </symbol>
</svg>


